<svg xmlns="http://www.w3.org/2000/svg" viewBox="0 0 24 24" width="24" height="24" fill="none">
  <path d="M12 19V9M8.2 19.1v-6.5M15.8 19.1v-6.5" stroke="#E5E7EB" stroke-width="1.8" stroke-linecap="round"/>
  <path d="M12 11.5 9.1 8.8M12 12.2l3.1-3M8.2 14.2 5.8 12M15.8 14.2l2.4-2.2" stroke="#E5E7EB" stroke-width="1.8" stroke-linecap="round" stroke-linejoin="round"/>
  <path d="M5.2 20.8c1.4-1.1 2.7-1.1 4.1 0M9.6 20.8c1.6-1.2 3.2-1.2 4.8 0M14.7 20.8c1.4-1.1 2.7-1.1 4.1 0" stroke="#E5E7EB" stroke-width="1.6" stroke-linecap="round"/>
  <path d="M8.2 8.4c-1.4-.2-2.4.5-3.1 1.9 1.5.3 2.6-.4 3.1-1.9zM15.8 8.6c1.4-.3 2.5.3 3.2 1.7-1.5.4-2.6-.2-3.2-1.7zM12 7.7c-1-1-1-2.2 0-3.5 1 1.3 1 2.5 0 3.5zM5.2 11.4c-1.2-.2-2 .4-2.6 1.5 1.2.3 2.1-.2 2.6-1.5zM18.8 11.4c1.2-.2 2 .4 2.6 1.5-1.2.3-2.1-.2-2.6-1.5z" fill="#86EFAC"/>
</svg>
