<?xml version="1.0" standalone="no"?>
<!DOCTYPE svg PUBLIC "-//W3C//DTD SVG 20010904//EN"
 "http://www.w3.org/TR/2001/REC-SVG-20010904/DTD/svg10.dtd">
<svg version="1.0" xmlns="http://www.w3.org/2000/svg"
 width="512.000000pt" height="512.000000pt" viewBox="0 0 512.000000 512.000000"
 preserveAspectRatio="xMidYMid meet">

<g transform="translate(0.000000,512.000000) scale(0.100000,-0.100000)"
fill="#000000" stroke="none">
<path d="M3562 4974 c-100 -27 -164 -64 -243 -143 -78 -79 -120 -148 -143
-238 l-12 -48 -265 -6 c-295 -6 -323 -11 -425 -77 -108 -70 -187 -185 -213
-310 -7 -35 -11 -253 -11 -652 0 -576 -1 -601 -20 -653 -29 -76 -79 -130 -158
-169 l-67 -33 -303 0 -304 0 -22 70 c-54 172 -177 297 -346 356 -95 33 -239
32 -336 -3 -267 -94 -413 -362 -349 -637 43 -180 189 -331 374 -385 70 -20
209 -21 286 0 171 44 312 180 369 356 l23 73 269 3 c149 1 292 -2 322 -8 116
-21 202 -92 242 -196 19 -53 20 -76 20 -654 0 -399 4 -617 11 -652 35 -165
152 -300 316 -361 52 -19 83 -22 322 -27 l265 -5 12 -48 c23 -90 65 -159 143
-238 81 -81 144 -118 246 -144 279 -72 576 107 650 392 72 277 -106 574 -390
647 -133 35 -301 9 -415 -64 -108 -69 -204 -200 -234 -317 l-12 -48 -255 0
-254 0 -57 28 c-65 32 -121 89 -152 156 -21 45 -21 59 -26 691 -6 731 0 679
-95 823 l-17 27 707 -2 707 -3 23 -73 c55 -173 199 -312 370 -357 77 -20 216
-19 286 1 189 56 339 215 378 402 91 437 -357 789 -754 592 -144 -71 -226
-165 -277 -315 l-27 -80 -706 -3 c-388 -1 -705 0 -705 3 0 3 13 24 30 46 16
23 40 67 52 98 23 56 23 58 28 701 l5 645 28 57 c30 62 83 115 149 150 42 22
51 23 302 23 l260 0 12 -48 c23 -90 65 -159 143 -237 109 -109 229 -160 371
-160 297 1 540 241 540 535 0 241 -169 458 -406 520 -72 19 -191 18 -262 -1z"/>
</g>
</svg>
