<?xml version="1.0" standalone="no"?>
<!DOCTYPE svg PUBLIC "-//W3C//DTD SVG 20010904//EN"
 "http://www.w3.org/TR/2001/REC-SVG-20010904/DTD/svg10.dtd">
<svg version="1.0" xmlns="http://www.w3.org/2000/svg"
 width="512.000000pt" height="512.000000pt" viewBox="0 0 512.000000 512.000000"
 preserveAspectRatio="xMidYMid meet">

<g transform="translate(0.000000,512.000000) scale(0.100000,-0.100000)"
fill="#000000" stroke="none">
<path d="M2105 4935 l-25 -24 0 -469 c0 -258 -4 -491 -9 -518 -30 -158 -117
-287 -253 -375 -98 -63 -157 -76 -500 -109 -170 -16 -338 -37 -374 -45 -187
-43 -344 -133 -489 -279 -138 -140 -214 -274 -268 -471 -21 -80 -21 -85 -24
-1282 l-4 -1203 81 0 80 0 0 142 0 143 128 -128 c70 -70 131 -127 135 -127 10
0 107 97 107 107 0 5 -83 91 -185 193 l-185 185 0 338 0 338 91 -77 c149 -126
222 -236 255 -381 55 -247 95 -341 190 -457 47 -57 290 -265 298 -255 1 2 23
30 49 62 l47 59 -103 83 c-200 161 -266 263 -311 485 -20 99 -36 146 -75 225
-65 131 -130 205 -300 345 l-140 115 0 212 -1 211 151 242 c83 132 173 264
200 293 l48 52 1 -278 c0 -273 -1 -283 -35 -490 -20 -117 -38 -224 -41 -238
-5 -26 -3 -26 71 -38 42 -7 79 -11 81 -8 3 3 15 63 26 133 12 71 24 133 28
137 4 4 34 -28 66 -71 l60 -80 58 44 c33 24 61 46 64 48 2 3 -45 72 -107 154
l-111 149 0 107 0 106 160 0 160 0 0 80 0 80 -160 0 -160 0 0 146 0 145 64 29
c36 16 97 40 138 52 69 21 93 22 496 26 232 2 422 0 422 -3 0 -3 -49 -77 -109
-163 -136 -196 -205 -310 -285 -471 -167 -333 -273 -686 -321 -1071 -18 -143
-88 -314 -170 -414 -25 -31 -45 -59 -45 -63 0 -17 100 -105 113 -100 26 10
117 141 162 232 25 50 56 131 69 180 19 74 47 133 161 338 76 136 141 244 145
240 3 -5 12 -33 19 -63 32 -133 113 -300 215 -444 l60 -84 40 29 c23 16 52 38
65 48 l25 19 -51 68 c-130 178 -195 338 -233 572 l-12 73 56 74 c31 42 84 107
118 147 l62 71 17 -101 c9 -56 29 -138 43 -184 30 -92 175 -398 188 -398 7 0
127 57 136 65 2 2 -29 67 -68 145 -39 78 -84 181 -101 230 -34 102 -59 253
-59 356 l0 70 241 282 c133 155 246 282 252 282 5 0 60 -51 122 -112 l113
-113 7 -88 c15 -178 -12 -324 -90 -497 -89 -197 -175 -461 -264 -810 -68 -269
-70 -240 20 -260 l76 -17 46 186 c26 102 53 210 62 239 l16 53 109 -135 108
-136 59 47 c32 26 60 48 62 49 2 2 -60 83 -138 180 -77 97 -141 183 -141 190
0 21 77 227 125 335 59 130 83 207 101 319 8 52 16 99 18 105 5 18 118 -195
165 -312 75 -184 124 -359 211 -753 69 -311 80 -373 75 -420 -8 -70 -48 -190
-82 -248 -40 -68 -137 -167 -210 -214 -59 -38 -62 -42 -50 -62 8 -12 26 -42
41 -68 l27 -47 60 37 c210 129 350 354 374 599 4 37 30 248 57 468 46 362 51
419 51 600 0 319 -55 585 -176 857 l-25 56 66 -25 c37 -13 96 -37 132 -52 l65
-26 116 -736 c128 -808 121 -778 218 -922 28 -42 51 -85 51 -95 0 -10 -15 -94
-34 -185 -18 -92 -30 -169 -27 -172 13 -7 141 -28 146 -24 2 3 11 39 20 80 28
137 19 133 86 33 87 -132 95 -221 29 -324 -17 -26 -30 -50 -30 -53 0 -3 28
-25 62 -48 l61 -42 20 24 c67 83 103 215 86 320 -13 84 -36 125 -231 417 -93
140 -174 266 -179 281 -5 14 -22 114 -39 221 -17 107 -33 208 -36 223 l-6 28
101 -50 c55 -28 102 -51 104 -51 6 0 71 140 66 144 -2 2 -69 36 -149 76 -80
40 -146 73 -148 75 -4 3 -112 688 -109 691 6 7 201 -132 265 -189 145 -129
246 -258 363 -464 l69 -122 0 -351 0 -350 80 0 80 0 0 470 c0 266 -5 513 -11
568 -60 545 -361 1022 -829 1313 -121 75 -211 114 -500 218 -140 51 -278 106
-307 123 -106 64 -200 179 -244 301 -22 59 -23 80 -28 435 l-6 374 -24 19
c-22 18 -45 19 -453 19 l-429 0 -24 -25z m775 -419 c0 -308 8 -382 54 -494 57
-141 171 -273 304 -351 38 -22 173 -77 312 -126 362 -129 504 -202 687 -356
281 -236 485 -599 541 -964 11 -68 16 -71 -70 48 -106 146 -277 305 -438 409
-128 84 -247 139 -514 242 l-242 93 -64 68 c-82 86 -190 173 -282 226 -93 55
-249 122 -258 112 -7 -8 -60 -131 -60 -139 0 -2 5 -4 10 -4 24 0 209 -94 286
-145 100 -67 215 -178 284 -277 181 -256 295 -697 276 -1061 -6 -111 -41 -426
-48 -433 -2 -2 -14 47 -27 109 -28 132 -109 406 -157 531 -128 332 -333 618
-621 867 -114 98 -141 108 -186 67 -36 -34 -791 -918 -868 -1018 -73 -95 -146
-201 -221 -323 -53 -88 -53 -87 -1 76 44 138 99 270 177 427 79 158 137 250
330 530 168 243 176 261 131 306 l-25 25 -528 -3 -527 -4 -94 -27 c-198 -57
-380 -174 -504 -322 -32 -38 -90 -122 -129 -185 -39 -63 -75 -119 -81 -125 -6
-6 -7 38 -4 125 9 227 67 381 209 551 83 100 229 197 365 243 92 31 158 41
477 71 277 26 349 39 441 80 162 71 314 231 376 394 44 119 49 178 49 622 l0
419 320 0 320 0 0 -284z"/>
</g>
</svg>
